<svg width="114" height="88" viewBox="0 0 114 88" fill="none" xmlns="http://www.w3.org/2000/svg">
<path d="M0 58.0796C0.334911 56.4207 0.489029 54.6966 1.04623 53.1177C1.89091 50.7301 2.95788 48.4106 4.04264 46.1178C6.49075 40.9486 9.00702 35.812 11.4966 30.6635C11.6092 30.4295 11.7041 30.1895 11.8315 29.9644C12.3354 29.0638 13.2334 28.7202 14.0662 29.1023C14.8843 29.4786 15.2488 30.4295 14.822 31.3626C13.9595 33.2407 13.0408 35.0921 12.1457 36.9554C11.9916 37.2783 11.8464 37.6071 11.5855 38.1788C12.1664 37.8382 12.5251 37.6278 12.8837 37.4175C20.8504 32.7489 29.1046 32.1772 37.6522 35.6609C38.5325 36.0193 39.1075 36.5762 38.9741 37.5775C38.823 38.718 37.7412 39.1623 36.4993 38.792C34.2794 38.1285 32.0684 37.3257 29.7952 36.988C17.8481 35.2165 5.96615 43.8546 3.767 55.7867C1.29815 69.1823 9.86652 81.4166 23.337 83.7331C35.5717 85.8363 48.0019 77.1064 50.1299 64.8455C51.6385 56.1659 49.0896 48.8076 42.6818 42.7734C42.5485 42.646 42.4032 42.5275 42.2758 42.3971C41.5437 41.6388 41.4756 40.7146 42.098 40.0243C42.7352 39.3164 43.7399 39.1801 44.4542 39.9532C46.2562 41.8965 47.9545 43.9346 49.6764 45.9489C49.9521 46.2718 50.1506 46.6658 50.5241 47.2435C50.5508 46.7991 50.5715 46.6007 50.5715 46.4022C50.5715 39.9355 50.6011 33.4688 50.5656 27.0021C50.5182 17.9434 43.079 10.7272 34.0423 11.1301C28.0554 11.3967 23.5238 14.2849 20.5896 19.5341C19.6916 21.1426 18.9625 22.846 18.1474 24.5019C17.5398 25.7342 16.6359 26.1637 15.6934 25.6838C14.7746 25.2158 14.5227 24.2649 15.1451 23.0948C16.5647 20.4287 17.9162 17.7182 19.5345 15.1766C20.8356 13.1355 22.7828 11.6366 24.9079 10.4724C25.717 10.0281 26.2001 9.43563 26.535 8.63285C27.8569 5.45726 29.9019 2.93042 33.0346 1.36633C41.3807 -2.80459 51.3391 3.25924 51.4577 12.5875C51.4577 12.7712 51.4636 12.9578 51.4577 13.1415C51.3836 15.6861 51.3688 18.1833 52.7054 20.5383C53.3071 21.5959 53.4227 22.9259 53.7843 24.2116H59.5637C60.3995 22.0402 61.2175 19.9577 61.994 17.8575C62.1274 17.4931 62.08 17.0606 62.1037 16.6577C62.24 14.3442 62.077 11.9625 62.5601 9.72594C63.7219 4.42342 68.0283 0.818302 73.5825 0.0925382C78.4432 -0.541394 83.7099 2.12764 86.0335 6.68958C87.0827 8.74838 88.3423 10.348 90.3399 11.607C93.1377 13.3696 95.0494 16.0327 96.4868 19.0246C100.82 28.0359 105.144 37.0561 109.545 46.0348C110.912 48.8253 112.281 51.5803 112.963 54.6433C116.285 69.5703 106.149 84.5299 91.0542 86.9294C76.0366 89.317 62.2963 79.2956 59.9638 64.2352C59.8008 63.1836 59.7415 62.1172 59.6319 61.0033H54.2081C53.6094 63.7435 53.2715 66.4777 52.412 69.0341C48.5709 80.4627 37.3737 88.0225 25.631 87.2878C13.1445 86.5088 3.00827 77.7818 0.515703 65.6601C0.317128 64.6944 0.171901 63.7139 0 62.7363C0 61.1841 0 59.6318 0 58.0796ZM110.263 60.3546C110.257 47.3264 99.67 36.7688 86.6174 36.7747C73.5766 36.7806 62.9958 47.3679 63.0076 60.3931C63.0225 73.4035 73.6477 84.0115 86.6589 84.0027C99.667 83.9938 110.269 73.371 110.263 60.3516V60.3546ZM101.89 38.1018C101.825 37.8263 101.819 37.7137 101.771 37.619C98.9142 31.7032 96.1253 25.7549 93.1763 19.8866C89.7886 13.1474 82.3376 9.77926 75.1 11.5507C68.0017 13.2896 63.0284 19.6911 63.0106 27.1502C62.9958 33.4688 63.0077 39.7903 63.0106 46.1089C63.0106 46.414 63.0491 46.7191 63.0817 47.1724C70.9833 33.4954 88.6061 29.2712 101.893 38.1048L101.89 38.1018ZM53.9828 27.6479V57.5434H59.6319V27.6479H53.9828ZM48.0137 13.1622C48.648 8.95574 45.0351 4.35529 40.5657 3.53177C36.4638 2.77638 31.4194 5.13734 30.7199 8.1885C33.8289 7.51902 36.8935 7.65825 39.9255 8.51436C42.9871 9.37935 45.6456 10.9731 48.0137 13.1622ZM65.5091 13.2007C70.5772 8.62396 76.3596 6.95915 83.0134 8.17073C81.1254 4.45601 76.5345 2.55717 72.4355 3.67988C68.1676 4.84703 65.2216 8.81948 65.5121 13.2007H65.5091Z" fill="black"/>
<path d="M6.87014 60.3308C6.88495 49.24 15.9068 40.279 27.024 40.3146C38.1294 40.3501 47.0594 49.3496 47.0357 60.4789C47.012 71.478 37.9635 80.4715 26.9322 80.4656C15.8623 80.4596 6.85532 71.4187 6.87014 60.3308ZM10.1926 60.3871C10.1985 69.6473 17.7236 77.1537 26.9885 77.1419C36.2356 77.13 43.7281 69.588 43.7133 60.3101C43.6955 51.1062 36.2 43.6412 26.9677 43.6323C17.6821 43.6234 10.1866 51.1121 10.1926 60.3871Z" fill="black"/>
<path d="M106.721 59.0277C106.7 71.0102 98.3864 79.7727 87.8115 80.4392C77.37 81.0968 68.1081 73.4185 66.7329 62.9616C65.1858 51.2043 74.3766 40.4452 86.0658 40.3267C87.4559 40.3119 88.2502 40.8955 88.262 41.9382C88.2739 42.9691 87.4885 43.5911 86.1044 43.6445C77.5152 43.9762 70.488 50.6622 69.9071 59.0573C69.3114 67.6806 75.1472 75.2818 83.5851 76.8726C91.8038 78.4219 99.9513 73.5637 102.586 65.5418C105.203 57.5702 101.454 48.867 93.8369 45.2471C93.5376 45.1049 93.2264 44.9864 92.933 44.8294C91.9786 44.3199 91.6585 43.4964 92.0616 42.6254C92.4647 41.7545 93.3064 41.4346 94.3023 41.8404C97.0853 42.9691 99.5008 44.6457 101.507 46.8763C104.993 50.7481 106.694 55.3159 106.724 59.0307L106.721 59.0277Z" fill="black"/>
</svg>
