<svg width="98" height="112" viewBox="0 0 98 112" fill="none" xmlns="http://www.w3.org/2000/svg">
<path d="M41.7901 112C40.9258 111.465 40.6484 110.691 40.6893 109.688C40.7506 108.242 40.7039 106.789 40.7039 105.211C38.2219 105.211 35.8305 105.147 33.442 105.232C31.252 105.308 29.3277 104.814 27.4882 103.543C26.4107 102.797 24.9974 102.534 23.6835 102.038C23.3078 104.155 22.1116 105.214 20.0948 105.214C14.1586 105.214 8.21937 105.214 2.2831 105.214C0.504841 105.214 0.0113685 104.723 0.00552862 102.955C-0.000311294 100.55 -0.00323125 98.1421 0.00552862 95.737C0.0113685 94.4804 0.563241 93.8199 1.57939 93.7936C2.62765 93.7673 3.26128 94.4745 3.27588 95.7545C3.29632 97.7593 3.28172 99.7611 3.28172 101.848H13.5191V70.9056H3.28464C3.28464 71.2885 3.28464 71.6742 3.28464 72.06C3.28464 77.1624 3.28464 82.2678 3.28464 87.3703C3.28464 87.6976 3.30508 88.0307 3.26128 88.3522C3.12988 89.2873 2.41449 89.9186 1.56771 89.8835C0.706318 89.8484 0.0405681 89.1851 0.0259683 88.2236C-0.00615121 86.0377 0.0113685 83.8488 0.0113685 81.6629C0.0113685 77.6534 0.00552862 73.6439 0.0113685 69.6315C0.0142885 68.0622 0.528201 67.5449 2.11082 67.542C6.263 67.5332 10.4152 67.5361 14.5674 67.542C16.4157 67.542 16.8741 68.0125 16.88 69.8711C16.88 70.3036 16.88 70.7361 16.88 71.1716C19.0553 71.8028 21.4439 70.5286 23.2309 71.9489C24.9244 71.3703 26.472 70.742 28.0751 70.3241C29.8154 69.8711 31.068 68.9243 31.9382 67.3725C32.42 66.5162 32.931 65.6687 33.5208 64.8885C35.2757 62.5535 36.613 61.8638 40.7068 61.0952V59.9497C40.7068 53.2428 40.701 46.5331 40.7185 39.8262C40.7185 39.3323 40.7127 38.6719 41.0017 38.3826C41.4076 37.9764 42.1347 37.5818 42.634 37.6724C43.1333 37.763 43.5859 38.4176 43.9275 38.9144C44.0998 39.1687 43.983 39.6246 43.983 39.9869C43.983 49.0638 43.983 58.1407 43.983 67.2176C43.983 70.476 44.8765 71.3615 48.1323 71.3352C48.4505 71.3352 48.7717 71.3031 49.2068 71.2797C49.2068 70.8384 49.2068 70.4468 49.2068 70.0581C49.2068 48.9499 49.2068 27.8416 49.2068 6.73622C49.2068 6.5901 49.2068 6.44398 49.2068 6.29786C49.1834 4.48307 48.1498 3.29075 46.5993 3.28782C45.0459 3.2849 43.9888 4.47431 43.9859 6.28618C43.9801 14.5623 43.983 22.8356 43.983 31.1117C43.983 31.477 44.0122 31.8452 43.9596 32.2047C43.8341 33.0726 43.2997 33.6045 42.4384 33.6513C41.5127 33.7009 40.9462 33.1661 40.7389 32.2748C40.6893 32.0644 40.7068 31.8394 40.7068 31.6202C40.7068 23.0518 40.6805 14.4863 40.7185 5.91796C40.736 1.91723 44.4152 -0.841485 48.2228 0.233947C50.5354 0.885636 51.7151 2.60399 52.2582 4.83376C52.4042 5.42992 52.448 6.05239 52.5589 6.78882C52.9298 6.78882 53.321 6.78882 53.7123 6.78882C60.9246 6.78882 68.1369 6.78882 75.3492 6.78882C77.2034 6.78882 77.6735 7.2564 77.6764 9.10919C77.6793 12.4261 77.6764 15.743 77.6764 19.0628C77.6764 19.4544 77.6764 19.846 77.6764 20.372C78.1757 20.372 78.5641 20.372 78.9524 20.372C84.4157 20.372 89.8789 20.372 95.3451 20.372C97.9613 20.372 98.5891 21.3627 97.4357 23.6684C95.5962 27.3477 93.7683 31.0299 91.8995 34.6916C91.5666 35.3433 91.5637 35.8576 91.8995 36.5093C93.815 40.2704 95.6925 44.0549 97.573 47.8335C98.5191 49.7331 97.8796 50.8056 95.7889 50.8173C92.7667 50.8319 89.7417 50.8348 86.7195 50.8114C85.3909 50.8026 84.6142 49.9581 84.8653 48.8476C85.0902 47.8598 85.826 47.5442 86.7516 47.5413C88.6087 47.5354 90.4658 47.5413 92.3258 47.5413C92.7229 47.5413 93.1171 47.5413 93.7187 47.5413C93.5055 47.0825 93.3712 46.7668 93.2193 46.4629C91.628 43.2717 90.057 40.0688 88.4306 36.8951C87.9693 35.995 87.9693 35.2118 88.4306 34.3176C90.057 31.1439 91.6309 27.9439 93.2252 24.7497C93.3829 24.4341 93.5201 24.1097 93.707 23.7035H77.6852C77.6852 24.1506 77.6852 24.5422 77.6852 24.9309C77.6852 28.1397 77.6384 31.3484 77.7085 34.5543C77.7348 35.7787 77.3815 36.6759 76.4938 37.538C73.4629 40.4837 70.5021 43.5026 67.5179 46.4951C67.2463 46.7668 66.9981 47.0591 66.5514 47.5413C67.1792 47.5413 67.5617 47.5413 67.9413 47.5413C71.4744 47.5413 75.0076 47.5384 78.5407 47.5442C78.9378 47.5442 79.3495 47.55 79.732 47.6494C80.5379 47.8598 80.9526 48.4355 80.9175 49.2626C80.8825 50.0896 80.4153 50.6127 79.6007 50.7705C79.2824 50.8319 78.9466 50.8202 78.6195 50.8202C73.4833 50.8202 68.3471 50.826 63.2109 50.8202C61.3159 50.8202 60.837 50.3321 60.837 48.418C60.837 44.7387 60.837 41.0624 60.837 37.3071H52.5648V71.3528C54.3255 71.3528 56.095 71.3498 57.8616 71.3528C58.7346 71.3557 59.6252 71.2768 60.4778 71.4112C62.843 71.7823 64.4724 73.1412 65.1819 75.4353C65.8593 77.6329 65.2899 79.5295 63.5058 81.0287C63.4241 81.0989 63.3628 81.1924 63.2956 81.2683C64.814 84.5823 64.522 86.3737 62.0108 88.9074C63.6285 91.8415 63.2022 94.4512 60.5392 96.6839C61.3363 98.1918 61.5816 99.7699 61.0297 101.415C60.2764 103.662 58.3083 105.135 55.9373 105.2C54.8482 105.229 53.7561 105.205 52.4918 105.205C52.4918 106.728 52.448 108.207 52.5064 109.68C52.5472 110.679 52.264 111.454 51.4114 111.997H41.793L41.7901 112ZM23.5083 98.8581C25.8326 99.1796 27.9232 99.7991 29.8329 101.044C30.6038 101.547 31.6374 101.88 32.5543 101.892C38.7066 101.965 44.859 101.93 51.0113 101.93C52.6494 101.93 54.2875 101.965 55.9256 101.912C57.4002 101.868 58.2382 100.839 57.9813 99.4513C57.7564 98.2386 56.9126 97.733 55.7621 97.5401C54.7139 97.3648 54.0306 96.5553 54.0919 95.6932C54.1532 94.8457 54.8365 94.3314 55.9957 94.2846C56.5417 94.2612 57.0907 94.305 57.6338 94.2583C58.7667 94.1589 59.5143 93.3787 59.5931 92.2769C59.669 91.1752 59.0383 90.2722 57.9608 90.0004C57.6105 89.9127 57.2338 89.9419 56.8834 89.8572C56.0716 89.6585 55.4643 89.1821 55.4322 88.3054C55.4 87.4053 55.9957 86.8998 56.825 86.7449C57.4265 86.6338 58.0543 86.6572 58.6704 86.6309C59.8501 86.5812 60.6122 86.0493 60.802 85.1288C61.021 84.0738 60.4662 82.975 59.4529 82.522C59.1259 82.3759 58.7551 82.3292 58.4076 82.224C57.6513 81.996 57.0995 81.5694 57.0761 80.7073C57.0498 79.7867 57.6105 79.2811 58.4222 79.1C59.0149 78.9685 59.6486 79.0211 60.2618 78.9626C61.494 78.8457 62.2357 77.9544 62.1364 76.7358C62.0313 75.4382 61.021 74.6258 59.4325 74.6229C55.4993 74.6112 51.5632 74.4943 47.6388 74.6521C43.4633 74.8216 40.4586 71.6567 40.7039 67.7319C40.7681 66.6857 40.7127 65.6337 40.7127 64.4881C40.2104 64.5495 39.8162 64.567 39.4366 64.6459C37.4423 65.055 36.1867 66.4198 35.3253 68.1177C33.7456 71.2242 31.3542 73.1442 27.894 73.7549C26.4662 74.0063 25.1726 74.658 24.2675 75.8181C23.8791 76.3149 23.5521 77.0192 23.5462 77.6358C23.4907 82.9926 23.5141 88.3463 23.5141 93.703C23.5141 95.3776 23.5141 97.0492 23.5141 98.861L23.5083 98.8581ZM74.3097 33.9026V10.1466H52.5677V33.9026H74.3097ZM20.1708 101.889V74.6989H16.95V101.889H20.1708ZM64.1512 44.578C66.5601 42.1816 69.0859 39.6655 71.4452 37.3188H64.1512V44.578ZM49.1805 105.302H44.0472V108.631H49.1805V105.302Z" fill="black"/>
</svg>
